<svg xmlns="http://www.w3.org/2000/svg" width="71.59" height="29.063" viewBox="0 0 71.59 29.063">
  <defs>
    <style>
      .cls-1 {
        fill: #fa81a6;
        fill-rule: evenodd;
      }
    </style>
  </defs>
  <path id="KBL.svg" class="cls-1" d="M2173.85,40.006L2154.8,24.4v0.9l18.62-14.362h-2.1L2153.3,24.87l18.4,15.136h2.15Zm-20.08,0V10.938h-1.37V40.006h1.37Zm36.21,0a11.661,11.661,0,0,0,4.99-.989,7.408,7.408,0,0,0,4.42-7.009,7.439,7.439,0,0,0-1.65-4.859,8.1,8.1,0,0,0-4.58-2.709l-0.22.516a6.853,6.853,0,0,0,3.75-2.515,7.25,7.25,0,0,0,1.29-4.364,7.023,7.023,0,0,0-1.01-3.827,6.639,6.639,0,0,0-2.84-2.451,10.073,10.073,0,0,0-4.32-.86h-9.72v1.247h9.72a7.311,7.311,0,0,1,4.94,1.591,5.49,5.49,0,0,1,1.85,4.386,5.888,5.888,0,0,1-1.63,4.365,6.1,6.1,0,0,1-4.48,1.613h-10.4V25.3h10.62a8,8,0,0,1,3.78.86,6.37,6.37,0,0,1,3.49,5.848,6.169,6.169,0,0,1-2.13,4.9,8.333,8.333,0,0,1-5.66,1.849h-10.1v1.247h9.89Zm-9.2,0V10.938h-1.38V40.006h1.38Zm26.96,0V10.938h-1.38V40.006h1.38Zm16.25,0V38.759h-16.86v1.247h16.86Z" transform="translate(-2152.41 -10.938)"/>
</svg>
